<svg xmlns="http://www.w3.org/2000/svg" viewBox="0 0 64 64" shape-rendering="crispEdges">
  <rect x="2" y="2" width="60" height="60" rx="8" fill="#060810"/>
  <rect x="5" y="5" width="54" height="54" rx="6" fill="#0d1117"/>
  <path d="M7 8h50M7 56h50M8 7v50M56 7v50" stroke="#2e1c56" stroke-width="2"/>
  <rect x="14" y="14" width="36" height="12" fill="#4f46e5"/>
  <rect x="16" y="12" width="32" height="12" fill="#8b5cf6"/>
  <rect x="16" y="24" width="32" height="24" fill="#74492a"/>
  <rect x="16" y="24" width="3" height="24" fill="#402618"/>
  <rect x="45" y="24" width="3" height="24" fill="#402618"/>
  <rect x="20" y="40" width="24" height="4" fill="#f43f5e"/>
  <rect x="27" y="40" width="10" height="4" fill="#fbbf24"/>
  <rect x="18" y="50" width="28" height="3" fill="#38bdf8"/>
  <rect x="28" y="27" width="5" height="17" fill="#fbbf24"/>
  <rect x="33" y="30" width="5" height="4" fill="#fbbf24"/>
  <rect x="37" y="27" width="4" height="4" fill="#fbbf24"/>
  <rect x="33" y="38" width="5" height="4" fill="#fbbf24"/>
  <rect x="38" y="42" width="4" height="4" fill="#fbbf24"/>
</svg>
